# xmcd CD database file
#
# Track frame offsets:
#	182
#	28452
#	46499
#	69182
#	94431
#	116118
#	135904
#	155212
#	174110
#	198725
#	227579
#
# Disc length: 3291 seconds
#
# Revision: 2
# Processed by: cddbd v1.5.2PL0 Copyright (c) Steve Scherf et al.
# Submitted via: CDex 1.60beta1-cs1
#
DISCID=990cd90b
DTITLE=John Wetton_Geoffrey Downes - Icon2 - Rubicon -
DYEAR=2006
DGENRE=Rock
TTITLE0=The Die Is Cast
TTITLE1=Finger On The Trigger
TTITLE2=Reflections (Of My Life)
TTITLE3=To Catch A Thief
TTITLE4=Tears Of Joy
TTITLE5=Shannon
TTITLE6=The Hanging Tree
TTITLE7=The Glory Of Winning
TTITLE8=Whirlpool
TTITLE9=Rubicon
TTITLE10=The Harbour Wall
EXTD=YEAR: 2006
EXTT0=
EXTT1=
EXTT2=
EXTT3=
EXTT4=
EXTT5=
EXTT6=
EXTT7=
EXTT8=
EXTT9=
EXTT10=
PLAYORDER=
